<svg width="500" height="429" viewBox="0 0 500 429" fill="none" xmlns="http://www.w3.org/2000/svg">
<g clip-path="url(#clip0)">
<path d="M492.247 337.511L262.191 415.264C259.326 416.228 256.196 416.017 253.486 414.677C250.776 413.336 248.709 410.975 247.738 408.112L141.174 92.8069C140.209 89.9419 140.42 86.8113 141.761 84.1017C143.101 81.3922 145.462 79.3251 148.325 78.354L378.381 0.601182C381.246 -0.363528 384.377 -0.152385 387.086 1.18828C389.796 2.52895 391.863 4.88966 392.834 7.75249L499.399 323.058C500.363 325.923 500.152 329.054 498.812 331.763C497.471 334.473 495.11 336.54 492.247 337.511Z" fill="#E6E6E6"/>
<path d="M486.376 331.688L263.327 407.073C261.391 407.725 259.275 407.582 257.445 406.676C255.614 405.77 254.217 404.175 253.561 402.241L149.364 93.9423C148.713 92.0065 148.855 89.8911 149.761 88.0604C150.667 86.2296 152.262 84.8329 154.196 84.1768L377.246 8.79207C379.182 8.14024 381.297 8.2829 383.128 9.18876C384.958 10.0946 386.355 11.6897 387.011 13.624L491.208 321.923C491.86 323.859 491.717 325.974 490.811 327.805C489.905 329.635 488.31 331.032 486.376 331.688Z" fill="white"/>
<path d="M430.304 427.968H187.464C184.441 427.964 181.542 426.762 179.405 424.624C177.267 422.487 176.065 419.589 176.061 416.565V83.7388C176.065 80.7158 177.267 77.8175 179.405 75.6799C181.542 73.5422 184.441 72.3398 187.464 72.3364H430.304C433.327 72.3398 436.225 73.5422 438.363 75.6799C440.5 77.8175 441.703 80.7158 441.706 83.7388V416.565C441.703 419.589 440.5 422.487 438.363 424.624C436.225 426.762 433.327 427.964 430.304 427.968Z" fill="#CCCCCC"/>
<path d="M426.606 420.572H191.162C189.119 420.569 187.161 419.757 185.717 418.313C184.272 416.868 183.46 414.91 183.458 412.867V87.4369C183.46 85.3943 184.272 83.436 185.717 81.9916C187.161 80.5473 189.119 79.7348 191.162 79.7325H426.606C428.649 79.7348 430.607 80.5473 432.051 81.9916C433.495 83.436 434.308 85.3943 434.31 87.4369V412.867C434.308 414.91 433.495 416.868 432.051 418.313C430.607 419.757 428.649 420.569 426.606 420.572Z" fill="white"/>
<path d="M376.449 172.047H220.944C219.634 172.047 218.377 171.526 217.451 170.6C216.525 169.674 216.004 168.417 216.004 167.107C216.004 165.797 216.525 164.541 217.451 163.615C218.377 162.688 219.634 162.168 220.944 162.168H376.449C377.759 162.168 379.015 162.688 379.941 163.615C380.868 164.541 381.388 165.797 381.388 167.107C381.388 168.417 380.868 169.674 379.941 170.6C379.015 171.526 377.759 172.047 376.449 172.047Z" fill="#CCCCCC"/>
<path d="M396.824 188.718H220.944C220.295 188.718 219.653 188.59 219.053 188.342C218.454 188.093 217.91 187.729 217.451 187.271C216.992 186.812 216.628 186.268 216.38 185.668C216.132 185.069 216.004 184.427 216.004 183.778C216.004 183.129 216.132 182.487 216.38 181.888C216.628 181.289 216.992 180.744 217.451 180.285C217.91 179.827 218.454 179.463 219.053 179.215C219.653 178.966 220.295 178.839 220.944 178.839H396.824C398.134 178.839 399.39 179.359 400.317 180.285C401.243 181.212 401.763 182.468 401.763 183.778C401.763 185.088 401.243 186.344 400.317 187.271C399.39 188.197 398.134 188.718 396.824 188.718Z" fill="#CCCCCC"/>
<path d="M376.449 246.756H220.944C219.635 246.755 218.38 246.234 217.455 245.308C216.529 244.381 216.01 243.126 216.01 241.817C216.01 240.508 216.529 239.252 217.455 238.326C218.38 237.4 219.635 236.879 220.944 236.877H376.449C377.759 236.877 379.015 237.398 379.942 238.324C380.868 239.25 381.388 240.507 381.388 241.817C381.388 243.127 380.868 244.383 379.942 245.31C379.015 246.236 377.759 246.756 376.449 246.756Z" fill="#6C63FF"/>
<path d="M396.824 263.427H220.944C219.635 263.425 218.38 262.904 217.455 261.978C216.529 261.052 216.01 259.797 216.01 258.487C216.01 257.178 216.529 255.923 217.455 254.997C218.38 254.071 219.635 253.549 220.944 253.548H396.824C398.134 253.548 399.39 254.068 400.317 254.995C401.243 255.921 401.764 257.177 401.764 258.487C401.764 259.798 401.243 261.054 400.317 261.98C399.39 262.907 398.134 263.427 396.824 263.427Z" fill="#CCCCCC"/>
<path d="M376.449 321.466H220.944C219.635 321.464 218.38 320.943 217.455 320.017C216.529 319.091 216.01 317.835 216.01 316.526C216.01 315.217 216.529 313.962 217.455 313.035C218.38 312.109 219.635 311.588 220.944 311.587H376.449C377.759 311.587 379.015 312.107 379.942 313.033C380.868 313.96 381.388 315.216 381.388 316.526C381.388 317.836 380.868 319.093 379.942 320.019C379.015 320.945 377.759 321.466 376.449 321.466Z" fill="#CCCCCC"/>
<path d="M396.824 338.136H220.944C219.634 338.136 218.377 337.616 217.451 336.69C216.525 335.763 216.004 334.507 216.004 333.197C216.004 331.887 216.525 330.631 217.451 329.704C218.377 328.778 219.634 328.257 220.944 328.257H396.824C398.134 328.257 399.39 328.778 400.317 329.704C401.243 330.631 401.763 331.887 401.763 333.197C401.763 334.507 401.243 335.763 400.317 336.69C399.39 337.616 398.134 338.136 396.824 338.136Z" fill="#CCCCCC"/>
<path d="M126.038 228.435H90.2899C89.5546 228.434 88.8496 228.141 88.3296 227.621C87.8097 227.101 87.5172 226.396 87.5164 225.661V210.252C87.5164 204.776 89.6917 199.524 93.5639 195.652C97.4361 191.78 102.688 189.605 108.164 189.605C113.64 189.605 118.892 191.78 122.764 195.652C126.636 199.524 128.812 204.776 128.812 210.252V225.661C128.811 226.396 128.518 227.101 127.998 227.621C127.478 228.141 126.773 228.434 126.038 228.435Z" fill="#2F2E41"/>
<path d="M181.212 308.85C180.307 308.803 179.424 308.558 178.624 308.132C177.824 307.707 177.127 307.111 176.582 306.387C176.038 305.663 175.658 304.828 175.471 303.942C175.284 303.055 175.293 302.138 175.499 301.256L156.869 289.506L167.296 284.786L183.388 296.667C184.848 297.111 186.094 298.074 186.891 299.375C187.688 300.676 187.98 302.224 187.711 303.725C187.443 305.227 186.633 306.578 185.435 307.523C184.238 308.467 182.735 308.94 181.212 308.85Z" fill="#FFB8B8"/>
<path d="M168.357 299.264C167.723 299.205 167.12 298.966 166.618 298.575L115.37 258.85L108.762 247.098C108.123 245.968 107.836 244.672 107.938 243.378C108.04 242.083 108.526 240.848 109.334 239.832C109.894 239.125 110.593 238.542 111.389 238.118C112.184 237.694 113.059 237.439 113.957 237.369C114.856 237.3 115.759 237.416 116.611 237.712C117.462 238.007 118.243 238.476 118.905 239.087L176.028 285.418C176.398 285.668 176.714 285.989 176.957 286.362C177.201 286.736 177.368 287.154 177.447 287.593C177.527 288.032 177.519 288.482 177.422 288.918C177.325 289.353 177.143 289.765 176.885 290.129L171.408 297.862C171.148 298.232 170.815 298.546 170.429 298.783C170.044 299.02 169.614 299.176 169.166 299.241C168.898 299.28 168.626 299.288 168.357 299.264Z" fill="#2F2E41"/>
<path d="M47.5781 412.997L54.5829 415.832L68.8482 390.163L58.5102 385.98L47.5781 412.997Z" fill="#FFB8B8"/>
<path d="M46.7169 409.987L60.5113 415.569L60.5119 415.569C61.6663 416.036 62.7175 416.726 63.6053 417.6C64.4931 418.473 65.2001 419.513 65.6861 420.659C66.1721 421.806 66.4274 423.037 66.4376 424.283C66.4477 425.528 66.2125 426.763 65.7453 427.917L65.6297 428.203L43.0442 419.064L46.7169 409.987Z" fill="#2F2E41"/>
<path d="M129.198 420.878L136.754 420.878L140.349 391.732L129.197 391.733L129.198 420.878Z" fill="#FFB8B8"/>
<path d="M127.271 418.411L142.152 418.411H142.152C143.398 418.411 144.631 418.656 145.781 419.133C146.932 419.609 147.977 420.308 148.858 421.188C149.739 422.069 150.437 423.114 150.914 424.265C151.39 425.416 151.636 426.649 151.636 427.894V428.202L127.271 428.203L127.271 418.411Z" fill="#2F2E41"/>
<path d="M135.424 404.401C132.422 404.401 129.479 403.178 127.855 402.364C127.434 402.156 127.067 401.853 126.781 401.48C126.496 401.107 126.3 400.673 126.209 400.213L110.282 319.912L68.962 397.22C68.5907 397.916 67.9663 398.442 67.2179 398.691C58.3186 401.665 53.4652 396.986 51.7911 394.837C51.4505 394.396 51.2381 393.87 51.1774 393.316C51.1167 392.762 51.21 392.202 51.4471 391.698L70.5839 350.125L82.1549 310.634L93.8508 281.734L94.1061 281.761L133.216 285.878L137.972 312.032L142.761 399.118C142.804 399.812 142.606 400.5 142.201 401.065C141.435 402.138 140.415 403.005 139.233 403.587C138.05 404.169 136.741 404.449 135.424 404.401Z" fill="#2F2E41"/>
<path d="M113.26 228.2C121.62 228.2 128.398 221.423 128.398 213.062C128.398 204.702 121.62 197.924 113.26 197.924C104.899 197.924 98.1216 204.702 98.1216 213.062C98.1216 221.423 104.899 228.2 113.26 228.2Z" fill="#FFB8B8"/>
<path d="M118.524 297.9C111.934 297.9 103.779 294.043 94.2027 286.381L94.0396 286.25L100.81 232.835L101.127 232.823C110.811 232.474 118.693 234.933 125.218 240.359L125.274 240.417L130.565 247.22L130.567 247.344L131.313 289.125L131.294 289.184C130.593 291.096 129.463 292.822 127.99 294.228C126.516 295.634 124.74 296.683 122.797 297.294C121.41 297.704 119.971 297.908 118.524 297.9Z" fill="#6C63FF"/>
<path d="M128.272 322.871C127.532 322.87 126.813 322.625 126.227 322.174C125.64 321.722 125.219 321.091 125.028 320.376L115.733 285.189L109.844 317.246C109.69 318.097 109.212 318.855 108.511 319.361C107.81 319.867 106.94 320.082 106.084 319.961L80.4441 316.383C79.9553 316.315 79.4877 316.14 79.0745 315.87C78.6613 315.601 78.3127 315.243 78.0537 314.823C77.7947 314.403 77.6317 313.931 77.5762 313.44C77.5207 312.95 77.5742 312.454 77.7328 311.986L90.7023 273.76L87.799 251.363C87.5001 249.057 87.6841 246.714 88.3393 244.482C88.9945 242.251 90.1066 240.18 91.6049 238.402C93.1033 236.623 94.9552 235.176 97.0429 234.151C99.1306 233.127 101.409 232.548 103.732 232.451L103.992 232.441L116.325 262.184L118.286 254.338L121.356 237.451L121.814 237.716C126.147 240.214 129.711 243.856 132.115 248.243C134.518 252.629 135.67 257.592 135.444 262.589L134.666 280.476L141.556 316.995C141.719 317.867 141.531 318.769 141.031 319.502C140.531 320.236 139.761 320.742 138.889 320.909L128.896 322.813C128.69 322.852 128.481 322.872 128.272 322.871Z" fill="#2F2E41"/>
<path d="M133.696 211.793H111.837L111.613 208.655L110.492 211.793H107.126L106.682 205.573L104.461 211.793H97.9482V211.485C97.9531 207.155 99.6755 203.003 102.737 199.941C105.799 196.879 109.951 195.157 114.281 195.152H117.363C121.693 195.157 125.845 196.879 128.907 199.941C131.969 203.003 133.691 207.155 133.696 211.485V211.793Z" fill="#2F2E41"/>
<path d="M491.227 428.892H0.616346C0.452881 428.892 0.29611 428.827 0.180523 428.712C0.0649358 428.596 0 428.439 0 428.276C0 428.113 0.0649358 427.956 0.180523 427.84C0.29611 427.725 0.452881 427.66 0.616346 427.66H491.227C491.391 427.66 491.548 427.725 491.663 427.84C491.779 427.956 491.844 428.113 491.844 428.276C491.844 428.439 491.779 428.596 491.663 428.712C491.548 428.827 491.391 428.892 491.227 428.892Z" fill="#CCCCCC"/>
<path d="M119.049 305.756C119.048 306.745 119.26 307.722 119.67 308.622C120.079 309.522 120.678 310.323 121.424 310.971C122.17 311.619 123.047 312.099 123.996 312.379C124.944 312.659 125.941 312.731 126.92 312.592C127.823 314.664 129.311 316.428 131.202 317.666C133.093 318.905 135.305 319.565 137.566 319.565C139.09 319.565 140.6 319.265 142.009 318.681C143.418 318.098 144.698 317.242 145.776 316.164C146.855 315.086 147.71 313.806 148.294 312.397C148.877 310.988 149.177 309.478 149.177 307.953V297.892C149.177 295.302 147.078 294.436 144.488 294.436H130.643C128.053 294.436 125.954 295.302 125.954 297.892V298.852C124.123 298.854 122.368 299.582 121.074 300.876C119.779 302.171 119.051 303.926 119.049 305.756ZM120.932 305.756C120.934 304.425 121.463 303.149 122.405 302.207C123.346 301.266 124.622 300.736 125.954 300.735V307.953C125.954 308.899 126.069 309.842 126.297 310.76C126.183 310.768 126.07 310.778 125.954 310.778C124.622 310.776 123.346 310.247 122.405 309.305C121.463 308.364 120.934 307.088 120.932 305.756H120.932Z" fill="#6C63FF"/>
<path d="M124.609 304.096C124.188 303.294 123.596 302.594 122.875 302.045C122.154 301.496 121.322 301.112 120.436 300.92C119.551 300.728 118.634 300.732 117.75 300.933C116.867 301.133 116.038 301.525 115.322 302.081L96.8608 290.069L96.9312 301.514L114.451 311.166C115.464 312.307 116.861 313.036 118.375 313.216C119.89 313.396 121.419 313.014 122.671 312.143C123.923 311.271 124.812 309.971 125.169 308.488C125.526 307.005 125.327 305.442 124.609 304.096H124.609Z" fill="#FFB8B8"/>
<path d="M104.62 311.082C103.884 311.082 103.179 310.789 102.659 310.269L79.1512 286.762C78.4001 286.016 77.8521 285.09 77.5591 284.073C77.266 283.055 77.2376 281.98 77.4766 280.948C79.4888 272.151 84.3923 251.132 86.4624 245.957C87.9733 242.065 90.7699 238.807 94.388 236.724L94.4805 236.678L101.923 238.053L102.578 261.008L93.5885 280.272L112.704 298.317C113.207 298.789 113.515 299.431 113.569 300.119C113.622 300.806 113.416 301.489 112.992 302.033L106.812 310.007C106.571 310.318 106.266 310.575 105.918 310.759C105.571 310.943 105.187 311.052 104.794 311.076C104.736 311.08 104.678 311.082 104.62 311.082Z" fill="#2F2E41"/>
<path d="M137.54 297.611C142.305 297.611 146.169 297.059 146.169 296.378C146.169 295.697 142.305 295.145 137.54 295.145C132.774 295.145 128.911 295.697 128.911 296.378C128.911 297.059 132.774 297.611 137.54 297.611Z" fill="#2F2E41"/>
</g>
<defs>
<clipPath id="clip0">
<rect width="500" height="428.892" fill="white"/>
</clipPath>
</defs>
</svg>
