<svg width="858" height="915" viewBox="0 0 858 915" fill="none" xmlns="http://www.w3.org/2000/svg">
<path fill-rule="evenodd" clip-rule="evenodd" d="M412.97 -4.78646C484.395 -53.0866 562.991 -94.8652 650.466 -85.9685C749.89 -75.8564 864.191 -45.1267 924.996 47.2899C985.302 138.95 953.072 257.848 947.399 365.34C942.704 454.305 943.994 549.146 894.989 615.887C848.54 679.147 761.784 676.046 694.076 710.349C617.389 749.201 559.448 850.682 472.527 829.917C385.974 809.24 352.652 688.603 291.514 614.18C226.753 535.347 107.205 483.12 104.096 381.428C100.945 278.363 218.732 239.909 277.813 166.035C324.274 107.941 352.83 35.8829 412.97 -4.78646Z" fill="url(#paint0_linear)"/>
<defs>
<linearGradient id="paint0_linear" x1="418.756" y1="-24.7914" x2="723.539" y2="750.579" gradientUnits="userSpaceOnUse">
<stop stop-color="#6D678E"/>
<stop offset="1" stop-color="#F6B5CC"/>
</linearGradient>
</defs>
</svg>
