<svg width="967" height="939" viewBox="0 0 967 939" fill="none" xmlns="http://www.w3.org/2000/svg">
<path fill-rule="evenodd" clip-rule="evenodd" d="M823.037 72.2441C893.741 111.729 961.935 160.037 991.018 237.474C1024.07 325.487 1045.93 434.835 993.274 525.509C941.048 615.441 827.082 639.116 733.868 680.273C656.72 714.336 577.111 755.947 500.203 743.215C427.307 731.146 393.626 656.792 336.306 614.455C271.384 566.503 161.38 561.093 142.558 479.052C123.815 397.357 211.822 317.759 249.134 234.493C288.657 146.292 282.771 23.3424 367.409 -22.7283C453.19 -69.421 534.972 13.2983 622.124 31.4646C690.659 45.7503 763.503 38.9975 823.037 72.2441Z" fill="url(#paint0_linear)" fill-opacity="0.7"/>
<defs>
<linearGradient id="paint0_linear" x1="842.364" y1="68.5661" x2="314.636" y2="656.447" gradientUnits="userSpaceOnUse">
<stop stop-color="#6D678E"/>
<stop offset="1" stop-color="#F6B5CC"/>
</linearGradient>
</defs>
</svg>
