<svg width="138" height="152" viewBox="0 0 138 152" fill="none" xmlns="http://www.w3.org/2000/svg">
<path fill-rule="evenodd" clip-rule="evenodd" d="M85.1078 151.061C70.7946 150.738 60.9906 137.513 47.6713 132.271C34.5412 127.103 17.282 131.361 8.02075 120.722C-1.41423 109.883 0.672469 93.5342 1.46267 79.1869C2.251 64.8737 3.60135 49.9341 12.5373 38.7173C21.511 27.4531 36.4026 24.3813 49.6438 18.7076C65.5783 11.8799 81.5708 -4.24708 97.6365 2.25348C113.749 8.77313 113.707 31.6555 120.819 47.5068C126.593 60.3763 133.724 72.1504 135.285 86.1691C137.107 102.54 140.544 121.101 130.463 134.138C120.347 147.22 101.644 151.434 85.1078 151.061Z" fill="url(#paint0_linear)"/>
<defs>
<linearGradient id="paint0_linear" x1="84.316" y1="154.679" x2="45.9838" y2="11.6211" gradientUnits="userSpaceOnUse">
<stop stop-color="#6D678E"/>
<stop offset="1" stop-color="#F6B5CC"/>
</linearGradient>
</defs>
</svg>
