<svg width="152" height="150" viewBox="0 0 152 150" fill="none" xmlns="http://www.w3.org/2000/svg">
<path fill-rule="evenodd" clip-rule="evenodd" d="M120.39 135.984C107.833 142.861 92.7296 136.31 78.5737 138.429C64.6188 140.519 51.8006 152.836 38.4605 148.253C24.8702 143.583 18.503 128.382 12.0138 115.562C5.53987 102.772 -0.760475 89.1586 1.36986 74.9765C3.50919 60.7346 14.8698 50.6285 23.5002 39.0944C33.886 25.2142 39.6724 3.25151 56.836 0.848321C74.05 -1.56193 85.4548 18.2758 99.5392 28.4476C110.974 36.706 123.037 43.337 131.398 54.6972C141.162 67.9637 153.418 82.3197 151.207 98.6506C148.987 115.038 134.897 128.039 120.39 135.984Z" fill="url(#paint0_linear)" fill-opacity="0.5"/>
<defs>
<linearGradient id="paint0_linear" x1="121.513" y1="139.513" x2="16.7873" y2="34.7872" gradientUnits="userSpaceOnUse">
<stop stop-color="#6D678E"/>
<stop offset="1" stop-color="#F6B5CC"/>
</linearGradient>
</defs>
</svg>
