<svg width="170" height="170" viewBox="0 0 170 170" fill="none" xmlns="http://www.w3.org/2000/svg">
<path fill-rule="evenodd" clip-rule="evenodd" d="M85 0C38.0558 0 0 38.0558 0 85C0 131.944 38.0558 170 85 170C131.944 170 170 131.944 170 85C170 38.0558 131.944 0 85 0ZM58.92 118.8C62.0924 115.903 64.9676 112.947 67.5454 109.932C65.9383 115.656 65.1347 120.158 65.1347 123.44C65.1347 124.96 65.6147 125.72 66.5747 125.72C67.2947 125.72 68.2947 125.24 69.5747 124.28L71.8547 122.36C73.4547 121 76.1347 118.32 79.8947 114.32C83.6547 110.24 87.7747 105.48 92.2547 100.04L92.8547 99.68C92.9347 99.68 93.1347 99.76 93.4547 99.92L94.8947 100.28C95.5347 100.36 96.2547 100.4 97.0547 100.4C102.015 100.4 106.215 98.48 109.655 94.64C111.575 92.48 112.535 90.96 112.535 90.08C112.535 89.28 112.335 88.88 111.935 88.88C111.775 88.88 111.655 88.92 111.575 89C106.775 94.68 102.415 97.52 98.4947 97.52C96.4147 97.52 95.3747 97.24 95.3747 96.68C95.3747 96.52 95.4947 96.28 95.7347 95.96C107.735 78.92 113.775 69.28 113.855 67.04C113.855 66.64 113.615 66.44 113.135 66.44C112.975 66.44 112.655 66.52 112.175 66.68C107.215 68.52 102.295 72.4 97.4147 78.32C92.6147 84.16 90.2147 89.48 90.2147 94.28C90.2147 95.48 90.3747 96.44 90.6947 97.16C90.6947 97.48 90.6147 97.76 90.4547 98C86.1347 104.16 82.2547 108.48 78.8147 110.96C78.1747 111.52 77.6947 111.8 77.3747 111.8C77.0547 111.8 76.8947 111.36 76.8947 110.48C78.5747 100.24 82.8947 87.88 89.8547 73.4C90.4947 72.12 90.8147 71.28 90.8147 70.88C90.8147 70.32 90.5347 70.04 89.9747 70.04C86.2147 70.04 83.0547 72.08 80.4947 76.16C79.3943 77.9301 77.8648 81.2595 75.9062 86.1481C75.3492 87.2719 74.5671 88.9958 73.56 91.32C72.52 93.64 71.68 95.44 71.04 96.72C68.72 101.28 66.24 105.28 63.6 108.72C61.04 112.08 58.76 114.6 56.76 116.28C54.84 117.88 52.84 119.16 50.76 120.12C48.76 121 47.32 121.52 46.44 121.68C45.64 121.84 44.92 121.92 44.28 121.92C39.48 121.92 37.08 118.12 37.08 110.52C37.08 100.04 40.48 88.4 47.28 75.6C54.16 62.72 61.84 52.36 70.32 44.52L72.24 42.84C73.44 41.72 75.08 40.6 77.16 39.48C79.32 38.36 81.28 37.8 83.04 37.8C85.2 37.8 86.28 38.48 86.28 39.84C86.28 40.48 86.12 41.2 85.8 42C85.48 42.72 84.96 43.64 84.24 44.76C83.52 45.88 83.12 46.52 83.04 46.68C78.48 54.84 76.2 60.32 76.2 63.12C76.2 63.92 76.48 64.32 77.04 64.32C78.24 64.32 80.32 62.76 83.28 59.64C85.04 57.72 87.04 55.44 89.28 52.8C91.52 50.16 93.92 46.92 96.48 43.08C99.12 39.24 100.44 36.44 100.44 34.68C100.44 33.56 99.88 33 98.76 33H97.8C94.12 33 91.44 33.68 89.76 35.04C89.44 35.6 89 35.88 88.44 35.88C88.2 35.88 88 35.84 87.84 35.76C86.24 35.12 84.36 34.8 82.2 34.8C79.4 34.8 76.28 35.48 72.84 36.84C69.48 38.12 67.16 39.16 65.88 39.96C64.68 40.68 63.72 41.32 63 41.88C51.64 50.6 42.28 61.84 34.92 75.6C27.64 89.36 24 102.52 24 115.08C24 125 27.32 129.96 33.96 129.96C38.12 129.96 42.4 128.92 46.8 126.84C51.2 124.76 55.24 122.08 58.92 118.8ZM98.0888 113C98.0888 112.867 98.0055 112.783 97.8388 112.75C97.5055 112.717 97.0222 112.7 96.3888 112.7C95.5722 112.7 94.8472 112.733 94.2138 112.8C94.0472 112.833 93.9638 112.9 93.9638 113C93.9638 113.083 94.0055 113.158 94.0888 113.225C94.9055 113.458 95.3138 114 95.3138 114.85C95.3138 115.65 94.9972 116.55 94.3638 117.55C93.7305 118.533 93.0055 119.3 92.1888 119.85L92.0888 119.9C92.0222 119.9 91.9888 119.85 91.9888 119.75C92.0555 115.633 92.5222 112.15 93.3888 109.3L93.5638 109.125C94.6305 108.608 95.6138 107.917 96.5138 107.05C97.4305 106.167 97.8888 105.283 97.8888 104.4C97.8888 103.833 97.6888 103.55 97.2888 103.55C96.8722 103.55 96.4055 103.675 95.8888 103.925C95.3888 104.175 94.8472 104.558 94.2638 105.075C93.6972 105.575 93.1472 106.3 92.6138 107.25C92.0805 108.183 91.6388 109.258 91.2888 110.475L91.2638 110.5C91.2638 110.533 91.2472 110.575 91.2138 110.625C91.1805 110.658 91.1388 110.683 91.0888 110.7C90.1722 111.1 89.2722 111.583 88.3888 112.15C87.5055 112.717 86.6722 113.375 85.8888 114.125C85.1055 114.875 84.4722 115.725 83.9888 116.675C83.5055 117.625 83.2638 118.583 83.2638 119.55C83.2638 120.533 83.5888 121.308 84.2388 121.875C84.9055 122.442 85.7138 122.725 86.6638 122.725C87.7138 122.725 88.8638 122.425 90.1138 121.825L90.2138 121.8C90.2805 121.8 90.3222 121.842 90.3388 121.925C90.4555 122.642 90.7555 123.283 91.2388 123.85C91.7222 124.433 92.1555 124.725 92.5388 124.725C92.6722 124.725 92.7388 124.658 92.7388 124.525C92.7388 124.508 92.7222 124.45 92.6888 124.35C92.2722 123.567 92.0388 122.433 91.9888 120.95V120.9C91.9888 120.883 92.0055 120.85 92.0388 120.8C92.0722 120.75 92.1138 120.708 92.1638 120.675L92.6138 120.375C92.9138 120.175 93.2972 119.858 93.7638 119.425C94.2472 118.975 94.7472 118.467 95.2638 117.9C95.7972 117.317 96.3222 116.592 96.8388 115.725C97.3722 114.842 97.7888 113.933 98.0888 113ZM94.4888 106.175C95.0222 105.208 95.4972 104.725 95.9138 104.725C96.1138 104.725 96.2138 104.842 96.2138 105.075C96.2138 105.408 96.1305 105.75 95.9638 106.1C95.7972 106.433 95.6055 106.725 95.3888 106.975C95.1888 107.208 94.9472 107.442 94.6638 107.675C94.3972 107.908 94.2138 108.067 94.1138 108.15C94.0138 108.217 93.9305 108.267 93.8638 108.3C93.8472 108.317 93.8222 108.325 93.7888 108.325C93.7388 108.325 93.7138 108.283 93.7138 108.2C93.7138 107.817 93.9722 107.142 94.4888 106.175ZM90.7638 111.625C90.8638 111.625 90.9138 111.667 90.9138 111.75C90.3305 114.383 90.0388 116.692 90.0388 118.675C90.0388 119.508 90.0805 120.217 90.1638 120.8C90.1638 121 90.0972 121.125 89.9638 121.175L89.7388 121.25C89.5888 121.3 89.3638 121.35 89.0638 121.4C88.7805 121.45 88.5055 121.475 88.2388 121.475C86.5888 121.475 85.7472 120.558 85.7138 118.725L85.7388 118.25C85.7555 117.933 85.8555 117.508 86.0388 116.975C86.2222 116.442 86.4722 115.875 86.7888 115.275C87.1055 114.675 87.6055 114.042 88.2888 113.375C88.9888 112.708 89.8138 112.125 90.7638 111.625ZM111.155 115.05C112.037 114.168 113.098 113.042 114.336 111.671C114.461 111.432 114.591 111.192 114.727 110.95C116.394 107.95 118.544 105.4 121.177 103.3C123.844 101.167 126.46 100.1 129.027 100.1C130.894 100.1 131.827 100.833 131.827 102.3C131.827 103.1 131.427 104.183 130.627 105.55C130.594 105.583 130.577 105.633 130.577 105.7C130.577 105.767 130.61 105.8 130.677 105.8C131.91 105.3 132.96 105.033 133.827 105C134.127 105.067 134.277 105.167 134.277 105.3C134.277 105.5 134.144 105.733 133.877 106C133.51 106.367 132.96 106.85 132.227 107.45C131.527 108.05 131.11 108.417 130.977 108.55L130.277 109.5C129.577 111.467 128.494 113.517 127.027 115.65C125.594 117.75 123.827 119.6 121.727 121.2C119.66 122.8 117.677 123.6 115.777 123.6C113.41 123.6 112.227 122.15 112.227 119.25C112.227 117.673 112.542 116.02 113.171 114.292C111.946 115.583 110.807 116.735 109.755 117.75C105.755 121.617 103.105 123.55 101.805 123.55C101.339 123.55 101.105 123.25 101.105 122.65C101.105 121.95 101.372 120.9 101.905 119.5C102.439 118.1 102.972 116.867 103.505 115.8L104.305 114.25C105.072 112.883 106.339 110.55 108.105 107.25C109.872 103.95 111.572 100.833 113.205 97.9C114.872 94.9667 116.439 92.3167 117.905 89.95H113.955C113.622 89.95 113.455 89.8667 113.455 89.7C113.455 89.5333 113.589 89.3667 113.855 89.2C114.122 89.0333 114.405 88.95 114.705 88.95C115.439 88.95 116.722 88.9333 118.555 88.9C120.189 86.3333 121.589 84.3 122.755 82.8C123.789 81.5 124.505 80.85 124.905 80.85C125.139 80.85 125.255 81 125.255 81.3C125.255 82 124.622 83.5 123.355 85.8L121.655 88.9H126.805C127.105 88.9 127.255 88.9833 127.255 89.15C127.255 89.6833 126.772 89.95 125.805 89.95H121.105C113.405 104.55 109.355 112.2 108.955 112.9C107.555 115.467 106.855 117.133 106.855 117.9C106.855 118.133 106.939 118.25 107.105 118.25C107.572 118.25 108.922 117.183 111.155 115.05ZM129.077 106.2C129.344 105.033 129.477 104.133 129.477 103.5C129.477 102.1 129.01 101.4 128.077 101.4C126.777 101.4 125.16 102.6 123.227 105C121.294 107.4 119.627 110.1 118.227 113.1C116.86 116.1 116.177 118.467 116.177 120.2C116.177 121.467 116.627 122.1 117.527 122.1C118.927 122.1 120.594 120.7 122.527 117.9C124.494 115.1 125.677 112.283 126.077 109.45C126.044 109.383 126.027 109.283 126.027 109.15C126.027 108.183 126.894 107.317 128.627 106.55C128.894 106.45 129.044 106.333 129.077 106.2ZM136.26 117.75C132.36 121.417 129.86 123.25 128.76 123.25C128.193 123.25 127.91 122.867 127.91 122.1C127.91 121.333 128.21 120.217 128.81 118.75C129.41 117.283 130.01 116 130.61 114.9L131.51 113.3C134.043 108.867 135.96 105.683 137.26 103.75C137.826 102.917 138.543 102.217 139.41 101.65C140.31 101.05 141.143 100.75 141.91 100.75C142.176 100.75 142.31 100.867 142.31 101.1C142.31 101.267 142.193 101.583 141.96 102.05C141.56 102.783 140.576 104.533 139.01 107.3C137.443 110.067 136.51 111.733 136.21 112.3C134.843 114.7 134.16 116.3 134.16 117.1C134.16 117.4 134.26 117.55 134.46 117.55C134.793 117.55 135.86 116.717 137.66 115.05C139.06 113.65 140.91 111.633 143.21 109C143.31 108.9 143.393 108.85 143.46 108.85C143.526 108.85 143.56 108.917 143.56 109.05C143.56 109.683 143.31 110.3 142.81 110.9C140.343 113.633 138.16 115.917 136.26 117.75ZM142.91 97.9C142.076 97.9 141.66 97.4 141.66 96.4C141.66 95.4667 142.01 94.5333 142.71 93.6C143.41 92.6333 144.176 92.15 145.01 92.15C146.01 92.15 146.51 92.7167 146.51 93.85C146.51 94.7833 146.126 95.7 145.36 96.6C144.593 97.4667 143.776 97.9 142.91 97.9Z" fill="url(#paint0_linear)"/>
<defs>
<linearGradient id="paint0_linear" x1="85" y1="0" x2="85" y2="170" gradientUnits="userSpaceOnUse">
<stop stop-color="#6D678E"/>
<stop offset="1" stop-color="#F6B5CC"/>
</linearGradient>
</defs>
</svg>
