<svg width="187" height="50" viewBox="0 0 187 50" fill="none" xmlns="http://www.w3.org/2000/svg">
<path d="M0.25 24.625C0.25 17 2.10417 11 5.8125 6.625C9.52083 2.25 14.3333 0.0625 20.25 0.0625C23.9167 0.0625 27.0208 1.08333 29.5625 3.125C32.1458 5.125 34.0833 7.52083 35.375 10.3125L31.125 11.8125C28.3333 6.8125 24.6667 4.3125 20.125 4.3125C15.625 4.3125 12.0417 6.16667 9.375 9.875C6.70833 13.5417 5.375 18.4583 5.375 24.625C5.375 30.875 6.72917 35.8125 9.4375 39.4375C12.1458 43.0208 15.7083 44.8125 20.125 44.8125C22.9167 44.8125 25.3542 44.0417 27.4375 42.5C29.5208 40.9167 31.0833 38.9792 32.125 36.6875L36.625 38.125C35.2083 41.1667 33.1458 43.7708 30.4375 45.9375C27.7292 48.0625 24.3333 49.125 20.25 49.125C14.375 49.125 9.5625 46.9583 5.8125 42.625C2.10417 38.25 0.25 32.25 0.25 24.625ZM38.25 1.1875H43.75L53.9375 33.375C54.2708 34.4583 54.75 36.0417 55.375 38.125C56 40.1667 56.5 41.8125 56.875 43.0625H57.125C57.5 41.7708 58 40.125 58.625 38.125C59.25 36.0833 59.7292 34.5 60.0625 33.375L70.375 1.1875H75.875L60.125 48H54L38.25 1.1875ZM84.5 36.1875C84.5 38.8958 85.375 41.0417 87.125 42.625C88.9167 44.2083 91.2083 45 94 45C97.7917 45 101.229 43.1458 104.312 39.4375L92.75 23.75C90.2917 25.4583 88.2917 27.2917 86.75 29.25C85.25 31.2083 84.5 33.5208 84.5 36.1875ZM79.5 36.25C79.5 30.0833 83.0625 24.75 90.1875 20.25C90.0625 20.0417 89.8542 19.75 89.5625 19.375C88.5208 17.9167 87.7708 16.8333 87.3125 16.125C86.8958 15.4167 86.5 14.5417 86.125 13.5C85.75 12.4583 85.5625 11.3542 85.5625 10.1875C85.5625 7.52083 86.5625 5.25 88.5625 3.375C90.6042 1.5 93.4375 0.5625 97.0625 0.5625C102.604 0.5625 106.667 3.1875 109.25 8.4375L105.438 10.125C104.688 8.66667 103.562 7.39583 102.062 6.3125C100.604 5.1875 99.0417 4.625 97.375 4.625C95.25 4.625 93.5833 5.1875 92.375 6.3125C91.1667 7.39583 90.5625 8.75 90.5625 10.375C90.5625 12.0833 91.7917 14.7708 94.25 18.4375C96.7083 22.1042 100.896 27.7917 106.812 35.5C108.104 32.9167 109.062 29.875 109.688 26.375L114.188 27.1875C113.479 31.6875 112.062 35.7708 109.938 39.4375L116.5 48H110.75L107.062 43.1875C103.396 47.1458 98.9792 49.125 93.8125 49.125C89.2708 49.125 85.75 47.8958 83.25 45.4375C80.75 42.9792 79.5 39.9167 79.5 36.25ZM117.75 18.4375V14.375H123.625V3.625H128.5V14.375H137.375V18.4375H128.5V38.125C128.5 40.2083 128.896 41.6875 129.688 42.5625C130.479 43.4375 131.75 43.875 133.5 43.875H137.375V48H132.875C126.708 48 123.625 44.8542 123.625 38.5625V18.4375H117.75ZM146.938 31.1875C146.938 35.4375 147.917 38.8125 149.875 41.3125C151.833 43.8125 154.271 45.0625 157.188 45.0625C160.062 45.0625 162.479 43.8125 164.438 41.3125C166.438 38.8125 167.438 35.4375 167.438 31.1875C167.438 26.8542 166.438 23.4583 164.438 21C162.438 18.5417 160.021 17.3125 157.188 17.3125C154.312 17.3125 151.875 18.5417 149.875 21C147.917 23.4583 146.938 26.8542 146.938 31.1875ZM142.062 31.1875C142.062 26.0625 143.375 21.7917 146 18.375C148.667 14.9583 152.396 13.25 157.188 13.25C161.938 13.25 165.646 14.9583 168.312 18.375C170.979 21.7917 172.312 26.0625 172.312 31.1875C172.312 33.3542 172.021 35.4583 171.438 37.5C170.896 39.5417 170.042 41.4583 168.875 43.25C167.75 45 166.167 46.4167 164.125 47.5C162.125 48.5833 159.812 49.125 157.188 49.125C154.604 49.125 152.292 48.6042 150.25 47.5625C148.25 46.4792 146.667 45.0625 145.5 43.3125C144.375 41.5208 143.521 39.6042 142.938 37.5625C142.354 35.5208 142.062 33.3958 142.062 31.1875ZM180.562 6.8125V0.5H186.688V6.8125H180.562ZM181.312 48V14.375H186.062V48H181.312Z" fill="#333333"/>
</svg>
