<svg width="47" height="41" viewBox="0 0 47 41" fill="none" xmlns="http://www.w3.org/2000/svg">
<g filter="url(#filter0_f)">
<path d="M33.7225 36.0064C34.8387 34.073 35.5632 31.9387 35.8546 29.7253C36.146 27.5119 35.9986 25.2628 35.4208 23.1064C34.843 20.95 33.8461 18.9286 32.487 17.1574C31.128 15.3863 29.4334 13.9002 27.5 12.7839C25.5666 11.6677 23.4323 10.9432 21.219 10.6518C19.0056 10.3604 16.7565 10.5078 14.6001 11.0856C12.4437 11.6634 10.4222 12.6603 8.65107 14.0194C6.87994 15.3784 5.39382 17.073 4.27759 19.0064L8.95463 21.7067C9.71626 20.3875 10.7303 19.2312 11.9387 18.3039C13.1472 17.3766 14.5265 16.6964 15.9979 16.3022C17.4692 15.9079 19.0038 15.8074 20.514 16.0062C22.0243 16.205 23.4805 16.6994 24.7997 17.461C26.1189 18.2226 27.2752 19.2366 28.2025 20.4451C29.1298 21.6536 29.8099 23.0329 30.2042 24.5042C30.5984 25.9756 30.699 27.5102 30.5002 29.0204C30.3014 30.5306 29.807 31.9869 29.0454 33.3061L33.7225 36.0064Z" fill="#F6B5CC"/>
</g>
<defs>
<filter id="filter0_f" x="0.277588" y="0.283936" width="45.9449" height="39.7224" filterUnits="userSpaceOnUse" color-interpolation-filters="sRGB">
<feFlood flood-opacity="0" result="BackgroundImageFix"/>
<feBlend mode="normal" in="SourceGraphic" in2="BackgroundImageFix" result="shape"/>
<feGaussianBlur stdDeviation="2" result="effect1_foregroundBlur"/>
</filter>
</defs>
</svg>
