<svg width="616" height="369" viewBox="0 0 616 369" fill="none" xmlns="http://www.w3.org/2000/svg">
<path fill-rule="evenodd" clip-rule="evenodd" d="M-127.722 264.251C-109.492 240.929 -87.2739 220.601 -60.1435 205.029C10.1679 164.672 92.8392 177.944 173.863 190.951C196.776 194.629 219.558 198.286 241.891 200.703C250.955 201.684 260.088 202.603 269.245 203.525C344.794 211.127 421.996 218.895 475.722 263.026C512.551 293.278 522.291 337.815 532.207 383.153C537.335 406.599 542.51 430.259 551.502 452.268C530.329 455.891 509.638 460.539 490.509 468.016C466.825 477.273 444.138 488.989 421.641 500.607C378.324 522.977 335.712 544.983 288.049 548.372C202.043 554.489 113.087 551.373 41.7804 499.93C-35.0578 444.498 -114.211 366.33 -127.722 264.251Z" fill="url(#paint0_linear)" fill-opacity="0.7"/>
<defs>
<linearGradient id="paint0_linear" x1="-26.6989" y1="421.202" x2="232.219" y2="220.068" gradientUnits="userSpaceOnUse">
<stop stop-color="#6D678E"/>
<stop offset="1" stop-color="#F6B5CC"/>
</linearGradient>
</defs>
</svg>
