<svg width="171" height="171" viewBox="0 0 171 171" fill="none" xmlns="http://www.w3.org/2000/svg">
<path fill-rule="evenodd" clip-rule="evenodd" d="M85.5 0C38.2795 0 0 38.2797 0 85.5C0 132.72 38.2795 171 85.5 171C132.72 171 171 132.72 171 85.5C171 38.2797 132.72 0 85.5 0ZM72.7666 128.255C77.2173 124.191 81.2207 120.038 84.7771 115.796C82.363 124.064 81.156 130.498 81.156 135.099C81.156 137.088 81.7839 138.082 83.04 138.082C83.9819 138.082 85.2903 137.454 86.9651 136.198L89.948 133.686C92.0413 131.907 95.5476 128.4 100.467 123.167C105.386 117.829 110.777 111.601 116.638 104.484L117.423 104.013C117.528 104.013 117.789 104.118 118.208 104.327L120.092 104.798C120.929 104.903 121.871 104.955 122.918 104.955C129.407 104.955 134.902 102.443 139.403 97.419C141.915 94.593 143.171 92.6043 143.171 91.453C143.171 90.4063 142.909 89.883 142.386 89.883C142.177 89.883 142.02 89.9353 141.915 90.04C135.635 97.4713 129.931 101.187 124.802 101.187C122.081 101.187 120.72 100.821 120.72 100.088C120.72 99.8787 120.877 99.5646 121.191 99.146C136.891 76.852 144.793 64.2396 144.898 61.309C144.898 60.7856 144.584 60.524 143.956 60.524C143.747 60.524 143.328 60.6287 142.7 60.838C136.211 63.2453 129.774 68.3217 123.389 76.067C117.109 83.7076 113.969 90.668 113.969 96.948C113.969 98.518 114.178 99.774 114.597 100.716C114.597 101.135 114.492 101.501 114.283 101.815C108.631 109.874 103.555 115.526 99.054 118.771C98.2166 119.504 97.5886 119.87 97.1699 119.87C96.7512 119.87 96.542 119.294 96.542 118.143C98.74 104.746 104.392 88.5746 113.498 69.63C114.335 67.9553 114.754 66.8563 114.754 66.333C114.754 65.6003 114.388 65.234 113.655 65.234C108.736 65.234 104.601 67.903 101.252 73.241C100.027 75.2119 98.395 78.6603 96.3564 83.5861C95.9771 83.9434 95.5452 84.546 95.0605 85.394C94.3279 86.8593 93.2812 89.162 91.9207 92.302C90.5598 95.3373 89.4609 97.6923 88.6235 99.367C85.5884 105.333 82.3435 110.566 78.8896 115.067C75.5403 119.463 72.5574 122.76 69.9407 124.958C67.4287 127.051 64.812 128.726 62.0906 129.982C59.4739 131.133 57.5898 131.814 56.4385 132.023C55.3918 132.232 54.45 132.337 53.6125 132.337C47.3325 132.337 44.1926 127.365 44.1926 117.422C44.1926 103.711 48.6409 88.4817 57.5376 71.735C66.5388 54.8837 76.5869 41.3293 87.6816 31.072L90.1936 28.874C91.7637 27.4087 93.9092 25.9434 96.6306 24.478C99.4565 23.0127 102.021 22.28 104.323 22.28C107.15 22.28 108.562 23.1697 108.562 24.949C108.562 25.7863 108.353 26.7283 107.935 27.775C107.516 28.717 106.836 29.9207 105.894 31.386C104.952 32.8513 104.428 33.6887 104.323 33.898C98.3577 44.574 95.3745 51.7437 95.3745 55.407C95.3745 56.4537 95.741 56.977 96.4736 56.977C98.0437 56.977 100.765 54.936 104.638 50.854C106.94 48.342 109.557 45.359 112.488 41.905C115.418 38.451 118.558 34.212 121.908 29.188C125.362 24.164 127.089 20.5007 127.089 18.198C127.089 16.7327 126.356 16 124.891 16H123.635C118.82 16 115.313 16.8896 113.115 18.669C112.697 19.4017 112.121 19.768 111.389 19.768C111.075 19.768 110.813 19.7156 110.604 19.611C108.51 18.7737 106.051 18.355 103.225 18.355C99.5613 18.355 95.4792 19.2447 90.9785 21.024C86.5825 22.6987 83.5474 24.0593 81.8726 25.106C80.3025 26.048 79.0466 26.8853 78.1045 27.618C63.2419 39.0267 50.9958 53.7324 41.3667 71.735C31.842 89.7377 27.0796 106.955 27.0796 123.388C27.0796 136.367 31.4233 142.856 40.1106 142.856C45.5532 142.856 51.1528 141.495 56.9097 138.774C62.6663 136.053 67.9519 132.546 72.7666 128.255Z" fill="url(#paint0_linear)"/>
<defs>
<linearGradient id="paint0_linear" x1="85.5" y1="0" x2="85.5" y2="171" gradientUnits="userSpaceOnUse">
<stop stop-color="#6D678E"/>
<stop offset="1" stop-color="#F6B5CC"/>
</linearGradient>
</defs>
</svg>
