<svg width="68" height="68" viewBox="0 0 68 68" fill="none" xmlns="http://www.w3.org/2000/svg">
<rect y="34.1539" width="47.5848" height="47.5848" rx="8" transform="rotate(-45 0 34.1539)" fill="#4BEE6F"/>
<path d="M29.3334 27.5064C29.3334 28.1252 29.0876 28.7187 28.65 29.1563C28.2124 29.5939 27.6189 29.8397 27.0001 29.8397C26.3812 29.8397 25.7878 29.5939 25.3502 29.1563C24.9126 28.7187 24.6667 28.1252 24.6667 27.5064C24.6667 26.8875 24.9126 26.294 25.3502 25.8565C25.7878 25.4189 26.3812 25.173 27.0001 25.173C27.6189 25.173 28.2124 25.4189 28.65 25.8565C29.0876 26.294 29.3334 26.8875 29.3334 27.5064Z" fill="white"/>
<path d="M29.3334 34.5064C29.3334 35.1252 29.0876 35.7187 28.65 36.1563C28.2124 36.5939 27.6189 36.8397 27.0001 36.8397C26.3812 36.8397 25.7878 36.5939 25.3502 36.1563C24.9126 35.7187 24.6667 35.1252 24.6667 34.5064C24.6667 33.8875 24.9126 33.294 25.3502 32.8565C25.7878 32.4189 26.3812 32.173 27.0001 32.173C27.6189 32.173 28.2124 32.4189 28.65 32.8565C29.0876 33.294 29.3334 33.8875 29.3334 34.5064Z" fill="white"/>
<path d="M28.2964 42.8027C27.9526 43.1465 27.4863 43.3397 27.0001 43.3397C26.5139 43.3397 26.0475 43.1465 25.7037 42.8027C25.3599 42.4589 25.1667 41.9926 25.1667 41.5064C25.1667 41.0201 25.3599 40.5538 25.7037 40.21C26.0475 39.8662 26.5139 39.673 27.0001 39.673C27.4863 39.673 27.9526 39.8662 28.2964 40.21C28.6403 40.5538 28.8334 41.0201 28.8334 41.5064C28.8334 41.9926 28.6403 42.4589 28.2964 42.8027Z" stroke="white"/>
<path d="M36.3334 27.5064C36.3334 28.1252 36.0876 28.7187 35.65 29.1563C35.2124 29.5939 34.6189 29.8397 34.0001 29.8397C33.3812 29.8397 32.7878 29.5939 32.3502 29.1563C31.9126 28.7187 31.6667 28.1252 31.6667 27.5064C31.6667 26.8875 31.9126 26.294 32.3502 25.8565C32.7878 25.4189 33.3812 25.173 34.0001 25.173C34.6189 25.173 35.2124 25.4189 35.65 25.8565C36.0876 26.294 36.3334 26.8875 36.3334 27.5064Z" fill="white"/>
<path d="M34.0001 36.8397C34.6189 36.8397 35.2124 36.5939 35.65 36.1563C36.0876 35.7187 36.3334 35.1252 36.3334 34.5064C36.3334 33.8875 36.0876 33.294 35.65 32.8565C35.2124 32.4189 34.6189 32.173 34.0001 32.173C33.3812 32.173 32.7878 32.4189 32.3502 32.8565C31.9126 33.294 31.6667 33.8875 31.6667 34.5064C31.6667 35.1252 31.9126 35.7187 32.3502 36.1563C32.7878 36.5939 33.3812 36.8397 34.0001 36.8397Z" fill="white"/>
<path d="M35.8334 41.5064C35.8334 41.9926 35.6403 42.4589 35.2964 42.8027C34.9526 43.1465 34.4863 43.3397 34.0001 43.3397C33.5139 43.3397 33.0475 43.1465 32.7037 42.8027C32.3599 42.4589 32.1667 41.9926 32.1667 41.5064C32.1667 41.0201 32.3599 40.5538 32.7037 40.21C33.0475 39.8662 33.5139 39.673 34.0001 39.673C34.4863 39.673 34.9526 39.8662 35.2964 40.21C35.6403 40.5538 35.8334 41.0201 35.8334 41.5064Z" stroke="white"/>
<path d="M41.0001 29.8397C41.6189 29.8397 42.2124 29.5939 42.65 29.1563C43.0876 28.7187 43.3334 28.1252 43.3334 27.5064C43.3334 26.8875 43.0876 26.294 42.65 25.8565C42.2124 25.4189 41.6189 25.173 41.0001 25.173C40.3812 25.173 39.7878 25.4189 39.3502 25.8565C38.9126 26.294 38.6667 26.8875 38.6667 27.5064C38.6667 28.1252 38.9126 28.7187 39.3502 29.1563C39.7878 29.5939 40.3812 29.8397 41.0001 29.8397Z" fill="white"/>
<path d="M42.8334 34.5064C42.8334 34.9926 42.6403 35.4589 42.2964 35.8027C41.9526 36.1465 41.4863 36.3397 41.0001 36.3397C40.5139 36.3397 40.0475 36.1465 39.7037 35.8027C39.3599 35.4589 39.1667 34.9926 39.1667 34.5064C39.1667 34.0201 39.3599 33.5538 39.7037 33.21C40.0475 32.8662 40.5139 32.673 41.0001 32.673C41.4863 32.673 41.9526 32.8662 42.2964 33.21C42.6403 33.5538 42.8334 34.0201 42.8334 34.5064Z" stroke="white"/>
<path d="M42.2964 42.8027C41.9526 43.1465 41.4863 43.3397 41.0001 43.3397C40.5139 43.3397 40.0475 43.1465 39.7037 42.8027C39.3599 42.4589 39.1667 41.9926 39.1667 41.5064C39.1667 41.0201 39.3599 40.5538 39.7037 40.21C40.0475 39.8662 40.5139 39.673 41.0001 39.673C41.4863 39.673 41.9526 39.8662 42.2964 40.21C42.6403 40.5538 42.8334 41.0201 42.8334 41.5064C42.8334 41.9926 42.6403 42.4589 42.2964 42.8027Z" stroke="white"/>
</svg>
