<svg width="500" height="320" viewBox="0 0 500 320" fill="none" xmlns="http://www.w3.org/2000/svg">
<g clip-path="url(#clip0)">
<path d="M291.206 0H54.7197V309.685H291.206V0Z" fill="#E6E6E6"/>
<path d="M277.13 16.0474H68.7964V72.3537H277.13V16.0474Z" fill="white"/>
<path d="M276.566 91.4978H147.062V294.2H276.566V91.4978Z" fill="white"/>
<path d="M209.889 37.0867H157.286V41.0404H209.889V37.0867Z" fill="#E6E6E6"/>
<path d="M216.449 47.3604H150.248V51.3141H216.449V47.3604Z" fill="#E6E6E6"/>
<path d="M235.79 138.274H183.187V142.228H235.79V138.274Z" fill="#E6E6E6"/>
<path d="M264.417 149.881H183.187V153.835H264.417V149.881Z" fill="#6C63FF"/>
<path d="M250.233 160.935H184.031V164.889H250.233V160.935Z" fill="#E6E6E6"/>
<path d="M221.834 173.064H183.187V177.018H221.834V173.064Z" fill="#E6E6E6"/>
<path d="M241.515 184.912H183.187V188.865H241.515V184.912Z" fill="#6C63FF"/>
<path d="M165.652 137.031H159.211V143.472H165.652V137.031Z" fill="#E6E6E6"/>
<path d="M165.652 148.638H159.211V155.079H165.652V148.638Z" fill="#6C63FF"/>
<path d="M165.652 159.692H159.211V166.133H165.652V159.692Z" fill="#E6E6E6"/>
<path d="M165.652 171.821H159.211V178.262H165.652V171.821Z" fill="#E6E6E6"/>
<path d="M165.652 183.668H159.211V190.109H165.652V183.668Z" fill="#6C63FF"/>
<path d="M235.79 196.833H183.187V200.787H235.79V196.833Z" fill="#E6E6E6"/>
<path d="M264.417 208.44H183.187V212.394H264.417V208.44Z" fill="#6C63FF"/>
<path d="M250.233 219.494H184.031V223.448H250.233V219.494Z" fill="#E6E6E6"/>
<path d="M221.834 231.623H183.187V235.577H221.834V231.623Z" fill="#E6E6E6"/>
<path d="M241.515 243.47H183.187V247.424H241.515V243.47Z" fill="#E6E6E6"/>
<path d="M165.652 195.589H159.211V202.03H165.652V195.589Z" fill="#E6E6E6"/>
<path d="M165.652 207.196H159.211V213.637H165.652V207.196Z" fill="#6C63FF"/>
<path d="M165.652 218.25H159.211V224.691H165.652V218.25Z" fill="#E6E6E6"/>
<path d="M165.652 230.379H159.211V236.82H165.652V230.379Z" fill="#E6E6E6"/>
<path d="M165.652 242.226H159.211V248.667H165.652V242.226Z" fill="#E6E6E6"/>
<path d="M103.077 27.4612C99.7665 27.4612 96.5301 28.4429 93.7773 30.2823C91.0246 32.1216 88.8791 34.7359 87.6121 37.7946C86.3452 40.8533 86.0136 44.2191 86.6595 47.4662C87.3054 50.7133 88.8997 53.6959 91.2407 56.037C93.5818 58.378 96.5644 59.9723 99.8115 60.6181C103.059 61.264 106.424 60.9325 109.483 59.6656C112.542 58.3986 115.156 56.2531 116.995 53.5003C118.835 50.7476 119.817 47.5112 119.817 44.2005C119.804 39.7649 118.036 35.5148 114.899 32.3784C111.763 29.2419 107.513 27.4742 103.077 27.4612V27.4612ZM103.077 32.483C104.07 32.483 105.041 32.7775 105.867 33.3293C106.693 33.8811 107.337 34.6654 107.717 35.583C108.097 36.5006 108.196 37.5103 108.003 38.4845C107.809 39.4586 107.33 40.3534 106.628 41.0557C105.926 41.758 105.031 42.2363 104.057 42.4301C103.083 42.6238 102.073 42.5244 101.155 42.1443C100.238 41.7642 99.4535 41.1206 98.9017 40.2947C98.3499 39.4689 98.0554 38.498 98.0554 37.5048C98.0598 36.1743 98.5904 34.8995 99.5312 33.9587C100.472 33.0179 101.747 32.4874 103.077 32.483V32.483ZM103.077 56.6584C101.093 56.6494 99.1418 56.1565 97.3916 55.2225C95.6414 54.2885 94.1455 52.9416 93.0336 51.2986C93.1141 47.9507 99.7293 46.1078 103.077 46.1078C106.425 46.1078 113.04 47.9507 113.121 51.2986C112.008 52.9403 110.511 54.2863 108.762 55.2201C107.012 56.154 105.061 56.6476 103.077 56.6584Z" fill="#6C63FF"/>
<path d="M500 309.01H0V310.272H500V309.01Z" fill="#3F3D56"/>
<path d="M403.676 95.0703C403.676 95.0703 409.391 107.136 413.202 108.406L402.406 124.916L393.516 114.121C393.516 114.121 394.151 106.501 392.246 103.326C390.341 100.15 403.676 95.0703 403.676 95.0703Z" fill="#FBBEBE"/>
<path d="M394.786 105.866C401.45 105.866 406.851 100.464 406.851 93.8002C406.851 87.1367 401.45 81.7349 394.786 81.7349C388.123 81.7349 382.721 87.1367 382.721 93.8002C382.721 100.464 388.123 105.866 394.786 105.866Z" fill="#FBBEBE"/>
<path d="M378.275 180.163L381.451 189.053L385.261 184.608L382.063 174.482L378.275 180.163Z" fill="#FBBEBE"/>
<path d="M387.166 175.718C387.166 175.718 383.355 191.593 385.26 199.214C387.166 206.834 392.881 258.905 392.881 258.905L396.691 300.182L411.931 301.452L410.026 253.19L411.931 211.279L422.727 251.92V301.452L441.142 302.087L439.237 237.95C439.237 237.95 440.507 188.418 432.252 182.068C423.997 175.718 422.727 174.448 422.727 174.448L387.166 175.718Z" fill="#2F2E41"/>
<path d="M399.866 299.547L398.596 303.992L396.691 309.707C396.691 309.707 390.976 321.138 400.501 319.233C410.026 317.327 408.756 312.882 408.756 312.882C408.756 312.882 411.931 310.977 411.296 310.342C410.661 309.707 410.661 300.182 410.661 300.182L399.866 299.547Z" fill="#2F2E41"/>
<path d="M436.697 299.547L437.967 303.992L439.872 309.707C439.872 309.707 445.587 321.138 436.062 319.233C426.537 317.327 427.807 312.882 427.807 312.882C427.807 312.882 424.632 310.977 425.267 310.342C425.902 309.707 425.902 300.182 425.902 300.182L436.697 299.547Z" fill="#2F2E41"/>
<path d="M402.406 117.296L410.173 105.866L424.632 113.486L426.537 179.528C426.537 179.528 418.282 174.448 405.581 180.798C392.881 187.148 384.626 182.703 384.626 182.703L392.246 154.127L389.071 116.026L393.612 111.904L402.406 117.296Z" fill="#E6E6E6"/>
<path d="M393.614 110.702L390.976 112.851C390.976 112.851 374.465 121.106 373.83 126.821L385.261 157.937C385.261 157.937 388.436 164.922 385.896 167.463C383.356 170.003 380.816 176.353 381.451 179.528C382.086 182.703 377.64 196.039 382.721 196.039C387.801 196.039 399.866 165.558 399.231 153.492C398.596 141.427 398.157 109.823 393.614 110.702Z" fill="#2F2E41"/>
<path d="M379.545 123.011L375.631 123.43C375.631 123.43 371.925 126.186 371.925 132.537C371.925 138.887 371.29 157.937 371.29 157.937C371.29 157.937 370.02 167.463 373.83 174.448C377.64 181.433 378.275 183.338 378.275 183.338L384.626 175.718V159.842L387.166 149.682L379.545 123.011Z" fill="#2F2E41"/>
<path d="M408.263 103.253L414.471 105.866C414.471 105.866 436.062 111.581 439.237 121.106L430.347 143.332C430.347 143.332 436.697 183.973 434.792 183.973H432.887C432.887 183.973 437.967 187.783 434.792 189.053C431.617 190.323 423.997 200.484 422.092 196.039C420.187 191.594 408.756 138.887 410.026 127.456C411.296 116.026 407.136 104.451 408.263 103.253Z" fill="#2F2E41"/>
<path d="M399.549 78.2423V76.9722H396.373C396.373 76.9722 391.293 73.7971 386.848 77.6072C382.403 81.4174 380.498 83.3224 380.498 83.3224L378.593 85.8625L380.498 86.4975L378.593 88.4026H380.498L379.228 90.3076L382.787 95.0703C382.787 95.0703 382.403 90.3076 386.213 90.3076C390.023 90.3076 394.468 85.2275 394.468 85.2275L403.994 92.2127C403.994 92.2127 403.359 88.4205 405.581 88.4115C405.581 88.4115 406.534 78.8773 399.549 78.2423Z" fill="#2F2E41"/>
<path d="M443.682 180.163L442.412 193.499C442.412 193.499 442.412 213.184 435.427 211.279C428.442 209.374 434.157 192.863 434.157 192.863L435.122 180.921L443.682 180.163Z" fill="#FBBEBE"/>
<path d="M429.712 117.931C429.712 117.931 437.967 114.756 440.507 124.281C443.047 133.807 446.222 152.857 446.222 152.857C448.876 159.59 448.876 167.08 446.222 173.813L444.317 183.338L433.522 182.068L430.982 160.477L428.442 133.172L429.712 117.931Z" fill="#2F2E41"/>
</g>
<defs>
<clipPath id="clip0">
<rect width="500" height="319.447" fill="white"/>
</clipPath>
</defs>
</svg>
