<svg width="607" height="484" viewBox="0 0 607 484" fill="none" xmlns="http://www.w3.org/2000/svg">
<g clip-path="url(#clip0)">
<path d="M569.934 34.4689H45.2279V394.073H569.934V34.4689Z" fill="#3F3D56"/>
<path d="M555.013 99.3973H318.771V393.74H555.013V99.3973Z" fill="#F2F2F2"/>
<path d="M24.0539 373.949C31.2344 388.214 46.4739 394.337 46.4739 394.337C46.4739 394.337 50.0716 377.333 42.8911 363.069C35.7106 348.805 20.4711 342.682 20.4711 342.682C20.4711 342.682 16.8734 359.685 24.0539 373.949Z" fill="#3F3D56"/>
<path d="M28.9893 369.257C41.953 377.611 46.9457 394.205 46.9457 394.205C46.9457 394.205 30.9201 397.254 17.9565 388.9C4.99276 380.545 0 363.951 0 363.951C0 363.951 16.0256 360.902 28.9893 369.257Z" fill="#6C63FF"/>
<path d="M541.957 126.785H398.676V132.974H541.957V126.785Z" fill="white"/>
<path d="M541.957 140.4H398.676V146.589H541.957V140.4Z" fill="white"/>
<path d="M447.207 154.015H398.676V160.204H447.207V154.015Z" fill="white"/>
<path d="M247.734 312.58H104.453V318.769H247.734V312.58Z" fill="white"/>
<path d="M247.734 326.195H104.453V332.384H247.734V326.195Z" fill="white"/>
<path d="M152.984 339.81H104.453V345.999H152.984V339.81Z" fill="white"/>
<path d="M508.386 202.702H365.105V208.89H508.386V202.702Z" fill="white"/>
<path d="M508.386 216.316H365.105V222.505H508.386V216.316Z" fill="white"/>
<path d="M508.386 229.635H365.105V235.824H508.386V229.635Z" fill="white"/>
<path d="M508.386 242.954H365.105V249.142H508.386V242.954Z" fill="white"/>
<path d="M508.386 256.272H365.105V262.461H508.386V256.272Z" fill="white"/>
<path d="M508.386 269.591H365.105V275.78H508.386V269.591Z" fill="white"/>
<path d="M508.386 282.91H365.105V289.098H508.386V282.91Z" fill="white"/>
<path d="M508.386 296.228H365.105V302.417H508.386V296.228Z" fill="white"/>
<path d="M508.386 309.547H365.105V315.736H508.386V309.547Z" fill="white"/>
<path d="M508.386 322.866H365.105V329.054H508.386V322.866Z" fill="white"/>
<path d="M508.386 336.184H365.105V342.373H508.386V336.184Z" fill="white"/>
<path d="M228.303 214.178C228.312 222.515 226.575 230.749 223.222 238.273C219.868 245.797 214.983 252.421 208.925 257.656C206.685 259.606 204.295 261.35 201.782 262.87C200.265 263.793 198.704 264.631 197.107 265.381C191.811 267.885 186.159 269.418 180.389 269.916C178.972 270.043 177.54 270.105 176.093 270.103C173.232 270.106 170.374 269.854 167.551 269.35C166.557 269.184 165.575 268.977 164.605 268.737C162.909 268.333 161.235 267.835 159.588 267.246C152.815 264.826 146.579 260.941 141.266 255.832C139.898 254.532 138.601 253.149 137.381 251.689C131.696 244.957 127.627 236.844 125.525 228.05C123.423 219.256 123.351 210.047 125.316 201.216C127.28 192.386 131.222 184.201 136.8 177.368C142.379 170.534 149.427 165.259 157.335 161.996C165.243 158.733 173.774 157.582 182.19 158.641C190.606 159.7 198.656 162.938 205.642 168.076C212.629 173.213 218.343 180.095 222.291 188.127C226.239 196.159 228.303 205.1 228.303 214.178Z" fill="#6C63FF"/>
<path d="M383.626 151.791C383.7 169.691 373.792 175.987 361.539 176.045C361.254 176.047 360.971 176.045 360.689 176.039C360.121 176.029 359.559 176.004 359.003 175.964C347.94 175.178 339.32 168.649 339.251 152.002C339.18 134.775 359.644 112.937 361.179 111.322L361.182 111.321C361.24 111.259 361.27 111.228 361.27 111.228C361.27 111.228 383.552 133.893 383.626 151.791Z" fill="#6C63FF"/>
<path d="M360.72 173.311L368.784 161.128L360.705 174.645L360.689 176.039C360.121 176.029 359.559 176.004 359.003 175.964L359.803 158.053L359.795 157.915L359.81 157.888L359.886 156.196L351.675 142.723L359.906 154.928L359.927 155.287L360.532 141.754L353.492 127.825L360.608 139.376L361.179 111.322L361.182 111.229L361.182 111.321L361.159 133.442L368.072 124.64L361.137 135.348L361.004 147.463L367.447 135.806L360.985 149.244L360.911 155.981L370.265 139.753L360.884 158.331L360.72 173.311Z" fill="#3F3D56"/>
<path d="M569.623 191.962C546.539 191.962 524.401 201.785 508.079 219.269C491.756 236.753 482.586 260.466 482.586 285.193V285.193C482.586 292.434 479.901 299.379 475.121 304.499C470.341 309.619 463.857 312.496 457.097 312.496H414.822C404.862 312.496 394.999 314.597 385.797 318.68C376.595 322.763 368.234 328.747 361.191 336.292C354.148 343.836 348.561 352.792 344.75 362.649C340.938 372.506 338.976 383.071 338.976 393.74V393.74H569.623V191.962H569.623Z" fill="#3F3D56"/>
<path d="M312.865 34.4689H301.675V394.073H312.865V34.4689Z" fill="#2F2E41"/>
<path d="M198.785 29.1415V19.8184C198.782 14.6986 196.882 9.78946 193.501 6.17026C190.12 2.55107 185.536 0.518005 180.756 0.518005C175.976 0.518005 171.392 2.55107 168.012 6.17026C164.631 9.78946 162.73 14.6986 162.727 19.8184V29.1415H128.534V49.7854H232.978V29.1415H198.785ZM180.756 5.83384C182.847 5.83384 184.89 6.4978 186.628 7.74175C188.366 8.9857 189.721 10.7538 190.52 12.8224C191.32 14.891 191.53 17.1673 191.122 19.3633C190.714 21.5593 189.707 23.5765 188.229 25.1598C186.751 26.743 184.868 27.8212 182.818 28.258C180.768 28.6948 178.643 28.4707 176.712 27.6138C174.781 26.757 173.13 25.3059 171.969 23.4442C170.807 21.5825 170.187 19.3938 170.187 17.1547C170.187 15.668 170.461 14.1959 170.992 12.8224C171.523 11.4489 172.302 10.2009 173.283 9.14964C174.264 8.09841 175.429 7.26452 176.712 6.69559C177.994 6.12667 179.368 5.83384 180.756 5.83384Z" fill="#6C63FF"/>
<path d="M185.364 210.487C185.364 210.487 180.171 226.319 183.367 228.755C186.563 231.19 172.582 251.082 172.582 251.082L155.804 246.21L164.992 229.567C164.992 229.567 166.19 212.923 166.19 210.487C166.19 208.052 185.364 210.487 185.364 210.487Z" fill="#FFB8B8"/>
<path opacity="0.1" d="M185.364 210.487C185.364 210.487 180.171 226.319 183.367 228.755C186.563 231.19 172.582 251.082 172.582 251.082L155.804 246.21L164.992 229.567C164.992 229.567 166.19 212.923 166.19 210.487C166.19 208.052 185.364 210.487 185.364 210.487Z" fill="black"/>
<path d="M174.753 222.26C182.288 222.26 188.396 215.717 188.396 207.646C188.396 199.575 182.288 193.032 174.753 193.032C167.218 193.032 161.11 199.575 161.11 207.646C161.11 215.717 167.218 222.26 174.753 222.26Z" fill="#FFB8B8"/>
<path d="M164.605 268.737C162.909 268.333 161.235 267.835 159.588 267.246L162.199 248.067L163.007 242.153L167.147 243.818C167.707 244.038 168.341 244.298 169.068 244.584C169.624 244.817 170.219 244.925 170.816 244.902C171.412 244.88 171.998 244.726 172.537 244.451C176.541 242.486 178.922 234.841 178.922 234.841C178.922 234.841 179.084 236.986 179.295 240.615C179.674 246.988 180.222 257.949 180.389 269.916C178.972 270.043 177.54 270.105 176.094 270.102C173.232 270.106 170.374 269.854 167.551 269.35C166.557 269.184 165.575 268.977 164.605 268.737Z" fill="#D0CDE1"/>
<path d="M168.31 232.411L167.147 243.818L166.582 249.339L164.605 268.737C162.909 268.333 161.235 267.835 159.588 267.246C152.815 264.826 146.579 260.941 141.266 255.832L138.749 246.209C138.762 245.635 138.816 245.063 138.91 244.497C138.91 244.494 138.91 244.49 138.911 244.487C138.912 244.483 138.914 244.48 138.917 244.477C138.991 243.974 139.095 243.475 139.227 242.986C139.231 242.98 139.233 242.973 139.234 242.966C139.68 241.134 140.557 239.455 141.782 238.091C144.816 234.841 164.897 224.693 164.897 224.693L165.276 225.545L168.31 232.411Z" fill="#D0CDE1"/>
<path d="M174.462 186.992C177.487 186.876 180.724 186.819 183.274 188.565C184.447 189.441 185.476 190.52 186.319 191.758C188.802 195.121 190.948 199.353 190.026 203.525L188.954 203.078C188.954 204.192 189.186 205.291 189.631 206.298C189.48 205.828 188.975 206.588 189.11 207.063L190.291 211.211C189.803 211.05 189.289 211 188.782 211.066C188.276 211.131 187.787 211.309 187.349 211.589C186.911 211.87 186.532 212.245 186.238 212.692C185.944 213.138 185.741 213.646 185.641 214.183C185.506 209.365 185.04 203.84 181.391 201.019C179.551 199.597 177.223 199.162 174.982 198.777C172.915 198.421 170.749 198.082 168.769 198.811C166.789 199.539 165.103 201.708 165.552 203.898C165.08 203.785 164.586 203.847 164.152 204.077C163.718 204.306 163.371 204.687 163.167 205.157C162.785 206.111 162.618 207.148 162.679 208.184C161.706 208.921 160.599 207.458 160.202 206.255C159.271 203.43 158.444 200.422 158.945 197.475C159.447 194.528 161.689 191.711 164.486 191.701C164.146 191.302 163.965 190.777 163.981 190.237L166.286 190.028C165.701 189.939 165.162 189.635 164.763 189.168C165.689 190.259 172.966 187.049 174.462 186.992Z" fill="#2F2E41"/>
<path d="M206.208 242.966C205.854 246.009 203.827 254.606 201.782 262.871C200.265 263.793 198.704 264.631 197.107 265.381C191.811 267.885 186.16 269.418 180.389 269.916C178.972 270.043 177.54 270.105 176.094 270.103C173.232 270.106 170.374 269.854 167.552 269.35C168.608 264.981 170.032 257.783 171.362 250.731C171.767 248.6 172.164 246.475 172.537 244.451C173.998 236.473 175.13 229.973 175.13 229.973C175.13 229.973 179.668 225.205 182.36 224.1C182.725 223.926 183.125 223.855 183.523 223.894C185.742 224.286 188.776 229.973 188.776 229.973C188.776 229.973 202.391 234.835 205.574 240.355C206.058 241.122 206.282 242.043 206.208 242.966Z" fill="#D0CDE1"/>
<path d="M148.602 242.966L147.807 261.186C145.497 259.59 143.31 257.8 141.267 255.832C139.898 254.532 138.601 253.149 137.381 251.69C138.034 248.62 138.581 246.036 138.91 244.497C138.91 244.494 138.91 244.49 138.911 244.487C138.912 244.483 138.914 244.48 138.917 244.477C139.091 243.625 139.203 243.099 139.227 242.986C139.231 242.98 139.233 242.973 139.234 242.966H148.602Z" fill="#D0CDE1"/>
<path d="M208.925 257.656C206.685 259.606 204.295 261.35 201.782 262.871C200.265 263.793 198.704 264.631 197.107 265.381L195.596 255.951L197.113 238.091L205.574 240.355L206.208 240.528L208.925 257.656Z" fill="#D0CDE1"/>
<path d="M567.638 288.977C567.638 288.977 561.733 319.897 571.574 317.086C581.415 314.275 577.478 287.571 577.478 287.571L567.638 288.977Z" fill="#A0616A"/>
<path d="M595.191 161.08H588.631C588.631 161.08 581.414 166.702 582.071 173.027C582.727 179.351 570.262 234.164 570.262 241.191C570.262 248.218 567.638 250.327 567.638 254.543C567.638 258.759 568.95 261.57 567.638 263.678C566.326 265.787 563.701 278.436 564.357 283.355C564.739 286.621 564.739 289.926 564.357 293.193H580.758C580.758 293.193 592.567 250.327 595.191 248.218C597.815 246.11 599.128 242.597 599.128 240.489C599.128 238.38 597.815 238.38 601.096 235.569C604.376 232.759 602.408 220.109 602.408 220.109L607 207.46L595.191 161.08Z" fill="#D0CDE1"/>
<path opacity="0.1" d="M595.191 161.08H588.631C588.631 161.08 581.414 166.702 582.071 173.027C582.727 179.351 570.262 234.164 570.262 241.191C570.262 248.218 567.638 250.327 567.638 254.543C567.638 258.759 568.95 261.57 567.638 263.678C566.326 265.787 563.701 278.436 564.357 283.355C564.739 286.621 564.739 289.926 564.357 293.193H580.758C580.758 293.193 592.567 250.327 595.191 248.218C597.815 246.11 599.128 242.597 599.128 240.489C599.128 238.38 597.815 238.38 601.096 235.569C604.376 232.759 602.408 220.109 602.408 220.109L607 207.46L595.191 161.08Z" fill="black"/>
<path d="M503.346 271.76C503.346 271.76 497.441 302.68 507.282 299.869C517.123 297.058 513.186 270.354 513.186 270.354L503.346 271.76Z" fill="#A0616A"/>
<path d="M505.314 415.819L501.378 433.387L515.811 443.225L519.747 422.143L505.314 415.819Z" fill="#A0616A"/>
<path d="M573.542 437.603L566.326 448.144L574.854 458.685H586.663V437.603H573.542Z" fill="#A0616A"/>
<path d="M588.631 449.55H584.695C582.747 449.125 580.739 449.125 578.79 449.55C574.854 450.252 569.513 443.489 569.513 443.489L564.357 448.144C564.357 448.144 553.861 450.955 559.109 464.307L570.918 472.037C570.918 472.037 576.822 485.389 588.631 483.281C600.44 481.172 591.911 467.118 591.911 467.118L588.631 449.55Z" fill="#2F2E41"/>
<path d="M505.314 424.954L504.316 420.273L495.473 422.846C495.473 422.846 477.104 410.197 477.104 427.062C477.104 443.928 491.537 449.55 491.537 449.55C491.537 449.55 496.785 448.847 496.785 453.766C496.785 458.685 510.562 466.415 515.811 463.604C521.059 460.793 521.059 453.766 521.059 453.766L519.747 434.09L513.842 435.495C513.842 435.495 502.69 434.792 504.658 431.982C506.626 429.171 505.314 424.954 505.314 424.954Z" fill="#2F2E41"/>
<path d="M524.339 263.327C524.339 263.327 516.467 274.571 516.467 280.895C516.467 287.22 513.843 343.438 513.843 343.438C513.843 343.438 499.41 415.116 503.346 419.332C507.282 423.549 519.091 429.873 521.059 427.765C523.027 425.657 536.804 349.06 536.804 349.06L553.205 301.977L568.294 369.439C568.294 369.439 567.638 427.765 570.262 428.468C572.886 429.171 574.198 429.873 572.886 432.684C571.574 435.495 569.606 441.117 569.606 441.117C569.606 441.117 586.007 445.333 589.287 442.522C592.567 439.712 593.223 371.547 589.287 347.654C585.351 323.762 589.943 268.949 589.943 268.949L524.339 263.327Z" fill="#2F2E41"/>
<path d="M548.284 127.35C559.154 127.35 567.966 117.911 567.966 106.268C567.966 94.6246 559.154 85.1859 548.284 85.1859C537.415 85.1859 528.603 94.6246 528.603 106.268C528.603 117.911 537.415 127.35 548.284 127.35Z" fill="#A0616A"/>
<path d="M542.38 119.62C542.38 119.62 545.004 134.377 542.38 138.593C539.756 142.809 577.806 139.999 577.806 139.999C577.806 139.999 559.437 117.511 561.405 113.295C563.373 109.079 542.38 119.62 542.38 119.62Z" fill="#A0616A"/>
<path d="M525.651 143.864C525.651 143.864 538.772 125.593 555.173 129.106C559.601 130.055 563.646 131.004 567.193 131.883C579.69 134.982 590.081 144.522 594.351 157.479C595.458 160.839 596.011 164.067 595.519 166.702C593.551 177.243 594.535 260.516 594.535 260.516C594.535 260.516 589.287 262.624 589.943 265.435C590.599 268.246 595.191 271.76 590.599 271.76C586.007 271.76 516.467 268.949 517.779 266.841C519.091 264.733 525.651 143.864 525.651 143.864Z" fill="#D0CDE1"/>
<path d="M532.212 143.864H525.651C525.651 143.864 518.435 149.485 519.091 155.81C519.747 162.134 507.282 216.947 507.282 223.974C507.282 231.002 504.658 233.11 504.658 237.326C504.658 241.543 505.97 244.354 504.658 246.462C503.346 248.57 500.722 261.219 501.378 266.138C501.759 269.405 501.759 272.71 501.378 275.976H517.779C517.779 275.976 529.587 233.11 532.212 231.002C534.836 228.894 536.148 225.38 536.148 223.272C536.148 221.164 534.836 221.164 538.116 218.353C541.396 215.542 539.428 202.893 539.428 202.893L544.02 190.244L532.212 143.864Z" fill="#D0CDE1"/>
<path opacity="0.1" d="M522.647 265.914L542.38 219.406L532.514 268.867L522.647 265.914Z" fill="black"/>
<path d="M541.419 74.3869L541.429 72.6473C542.785 72.4626 544.16 72.5142 545.501 72.8002C545.515 71.7501 545.312 70.7096 544.905 69.754C546.256 69.9444 547.57 70.3634 548.798 70.9952L549.25 67.7641L561.001 72.1751C565.219 73.7585 569.676 75.5216 572.414 79.306C575.466 83.5251 575.687 89.4287 574.516 94.6166C573.345 99.8044 570.961 104.571 569.183 109.557C568.534 111.685 567.699 113.743 566.686 115.703C563.135 121.835 555.117 124.024 548.834 121.418C546.515 120.457 544.326 118.854 543.151 116.507C542.549 115.05 542.038 113.554 541.619 112.026C540.527 108.928 538.933 102.446 536.282 100.741C535.116 99.9903 533.337 103.212 532.33 102.232C529.742 99.7141 529.727 95.3137 530.751 91.7327C531.717 88.1445 532.924 84.6356 534.361 81.2336C534.979 79.8608 541.42 74.1783 541.419 74.3869Z" fill="#2F2E41"/>
</g>
<defs>
<clipPath id="clip0">
<rect width="607" height="483" fill="white" transform="translate(0 0.506348)"/>
</clipPath>
</defs>
</svg>
