<svg width="795" height="1056" viewBox="0 0 795 1056" fill="none" xmlns="http://www.w3.org/2000/svg">
<path fill-rule="evenodd" clip-rule="evenodd" d="M852.042 53.4736C822.959 -23.9625 754.765 -72.2712 684.061 -111.756C644.878 -133.638 599.929 -138.192 554.238 -142.822C530.507 -145.227 506.576 -147.652 483.148 -152.535C453.679 -158.678 424.825 -172.201 396.222 -185.606C340.233 -211.845 285.209 -237.633 228.433 -206.728C171.745 -175.872 155.665 -110.527 139.353 -44.2349C131.31 -11.5495 123.21 21.3664 110.158 50.4928C97.8681 77.9191 80.0782 104.948 62.4147 131.784C26.4518 186.423 -8.98723 240.266 3.58187 295.052C15.842 348.491 66.7896 369.417 118.765 390.765C146.584 402.19 174.697 413.737 197.33 430.455C198.557 431.361 199.773 432.282 200.979 433.216C191.77 440.865 182.272 448.313 172.804 455.738C121.018 496.349 70.1237 536.26 72.2092 604.476C74.2915 672.586 128.608 718.506 183.712 765.093C210.881 788.063 238.241 811.194 259.627 837.227C279.765 861.741 296.885 891.268 313.883 920.586C348.492 980.277 382.596 1039.1 440.641 1052.96C497.258 1066.49 541.58 1028.15 586.796 989.034C610.997 968.098 635.454 946.942 662.189 933.397C686.223 921.22 712.658 913.757 738.837 906.365C786.409 892.934 833.141 879.74 863.102 838.935C906.809 779.408 910.509 697.53 914.129 617.403C914.567 607.691 915.005 598.005 915.513 588.388C916.763 564.691 919.304 540.439 921.86 516.047C930.898 429.796 940.12 341.791 893.109 270.338C889.951 265.538 886.649 260.905 883.212 256.433C892.918 187.49 875.237 115.23 852.042 53.4736Z" fill="url(#paint0_linear)" fill-opacity="0.7"/>
<defs>
<linearGradient id="paint0_linear" x1="703.388" y1="-115.434" x2="175.66" y2="472.447" gradientUnits="userSpaceOnUse">
<stop stop-color="#6D678E"/>
<stop offset="1" stop-color="#F6B5CC"/>
</linearGradient>
</defs>
</svg>
